# xmcd CD database file
#
# Track frame offsets:
#	150
#	21854
#	42356
#	65487
#	93470
#	114721
#	136446
#	158749
#	182923
#
# Disc length: 2733 seconds
#
# Revision: 1
# Processed by: cddbd v1.5.1PL0 Copyright (c) Steve Scherf et al.
# Submitted via: CDex 1.51
#
DISCID=7b0aab09
DTITLE=Growiser - Growiser
DYEAR=2004
DGENRE=Jazz
TTITLE0=Walking Dream
TTITLE1=Am I To Blame
TTITLE2=Grow Wiser
TTITLE3=Goodby Baby
TTITLE4=Falling Apart
TTITLE5=Where can My Baby Be?
TTITLE6=Don't Wake Me Up
TTITLE7=Never Like This
TTITLE8=Love Is Knocking
EXTD=YEAR: 2004
EXTT0=
EXTT1=
EXTT2=
EXTT3=
EXTT4=
EXTT5=
EXTT6=
EXTT7=
EXTT8=
PLAYORDER=
